<svg width="568" height="115" viewBox="0 0 568 115" fill="none" xmlns="http://www.w3.org/2000/svg">
<g filter="url(#filter0_d_2_16)">
<rect width="306.89" height="75.7704" transform="matrix(-0.999969 -0.00783884 -0.0074595 0.999972 424.995 26.0551)" fill="#5C5C5C"/>
<path d="M4 0L132 14V86.2222L4 107V0Z" fill="#28B6AD"/>
</g>
<path d="M181.192 81L199.176 38.632H205.192L223.176 81H217.864L212.68 68.712H191.688L186.504 81H181.192ZM193.544 64.296H210.824L202.184 43.624L193.544 64.296ZM242.191 94.184C238.18 94.184 234.916 93.3093 232.399 91.56C229.882 89.8533 228.175 87.6133 227.279 84.84H232.591C233.231 86.4187 234.34 87.6347 235.919 88.488C237.498 89.384 239.503 89.832 241.935 89.832C245.604 89.832 248.271 88.9573 249.935 87.208C251.642 85.5013 252.495 83.0053 252.495 79.72V75.304C251.3 77.0107 249.743 78.3973 247.823 79.464C245.946 80.488 243.684 81 241.039 81C237.924 81 235.194 80.296 232.847 78.888C230.543 77.4373 228.751 75.4747 227.471 73C226.191 70.5253 225.551 67.7733 225.551 64.744C225.551 61.672 226.191 58.92 227.471 56.488C228.751 54.0133 230.543 52.072 232.847 50.664C235.194 49.2133 237.924 48.488 241.039 48.488C243.684 48.488 245.946 49 247.823 50.024C249.743 51.0053 251.3 52.3707 252.495 54.12V49H257.295V80.04C257.295 84.6053 255.972 88.104 253.327 90.536C250.724 92.968 247.012 94.184 242.191 94.184ZM241.679 76.648C244.026 76.648 246.01 76.1147 247.631 75.048C249.295 73.9813 250.554 72.552 251.407 70.76C252.303 68.9253 252.751 66.92 252.751 64.744C252.751 62.5253 252.303 60.52 251.407 58.728C250.554 56.936 249.295 55.5067 247.631 54.44C246.01 53.3733 244.026 52.84 241.679 52.84C239.332 52.84 237.306 53.3733 235.599 54.44C233.892 55.5067 232.591 56.936 231.695 58.728C230.799 60.52 230.351 62.5253 230.351 64.744C230.351 66.92 230.799 68.9253 231.695 70.76C232.591 72.552 233.892 73.9813 235.599 75.048C237.306 76.1147 239.332 76.648 241.679 76.648ZM279.806 81.512C276.563 81.512 273.726 80.7867 271.294 79.336C268.862 77.8427 266.963 75.8373 265.598 73.32C264.275 70.8027 263.614 68.0293 263.614 65C263.614 61.928 264.254 59.1547 265.534 56.68C266.814 54.1627 268.648 52.1787 271.038 50.728C273.427 49.2347 276.243 48.488 279.486 48.488C282.771 48.488 285.587 49.2347 287.934 50.728C290.323 52.1787 292.158 54.1627 293.438 56.68C294.718 59.1547 295.358 61.928 295.358 65V66.92H268.542C268.798 68.7973 269.395 70.5253 270.334 72.104C271.315 73.64 272.616 74.8773 274.238 75.816C275.859 76.712 277.736 77.16 279.87 77.16C282.131 77.16 284.03 76.6693 285.566 75.688C287.102 74.664 288.296 73.3627 289.15 71.784H294.398C293.288 74.6427 291.518 76.9893 289.086 78.824C286.696 80.616 283.603 81.512 279.806 81.512ZM268.606 62.44H290.366C289.939 59.7093 288.787 57.4267 286.91 55.592C285.032 53.7573 282.558 52.84 279.486 52.84C276.414 52.84 273.939 53.7573 272.062 55.592C270.227 57.4267 269.075 59.7093 268.606 62.44ZM301.223 81V49H306.023V53.992C307.175 52.456 308.583 51.1547 310.247 50.088C311.911 49.0213 314.044 48.488 316.647 48.488C318.865 48.488 320.935 49.0213 322.855 50.088C324.817 51.112 326.396 52.6693 327.591 54.76C328.828 56.808 329.447 59.3467 329.447 62.376V81H324.647V62.504C324.647 59.6027 323.815 57.2773 322.151 55.528C320.487 53.736 318.332 52.84 315.687 52.84C313.895 52.84 312.273 53.2453 310.823 54.056C309.372 54.8667 308.199 56.0187 307.303 57.512C306.449 58.9627 306.023 60.648 306.023 62.568V81H301.223ZM351.233 81.512C348.033 81.512 345.259 80.7867 342.913 79.336C340.566 77.8427 338.731 75.8373 337.409 73.32C336.129 70.8027 335.489 68.0293 335.489 65C335.489 61.928 336.129 59.1547 337.409 56.68C338.731 54.1627 340.566 52.1787 342.913 50.728C345.259 49.2347 348.033 48.488 351.233 48.488C355.03 48.488 358.251 49.4693 360.897 51.432C363.585 53.3947 365.398 55.9333 366.337 59.048H361.153C360.427 57.2133 359.254 55.72 357.633 54.568C356.054 53.416 354.134 52.84 351.873 52.84C349.526 52.84 347.478 53.3947 345.729 54.504C343.979 55.6133 342.635 57.0853 341.697 58.92C340.758 60.7547 340.289 62.7813 340.289 65C340.289 67.176 340.758 69.2027 341.697 71.08C342.635 72.9147 343.979 74.3867 345.729 75.496C347.478 76.6053 349.526 77.16 351.873 77.16C354.134 77.16 356.054 76.584 357.633 75.432C359.254 74.28 360.427 72.7867 361.153 70.952H366.337C365.398 74.0667 363.585 76.6053 360.897 78.568C358.251 80.5307 355.03 81.512 351.233 81.512ZM375.613 93.672L381.437 80.552L368.381 49H373.693L383.997 75.24L394.493 49H399.741L380.797 93.672H375.613Z" fill="white"/>
<path d="M181.192 81L180.271 80.6093L179.681 82H181.192V81ZM199.176 38.632V37.632H198.514L198.255 38.2413L199.176 38.632ZM205.192 38.632L206.113 38.2413L205.854 37.632H205.192V38.632ZM223.176 81V82H224.687L224.097 80.6093L223.176 81ZM217.864 81L216.943 81.3887L217.201 82H217.864V81ZM212.68 68.712L213.601 68.3233L213.343 67.712H212.68V68.712ZM191.688 68.712V67.712H191.025L190.767 68.3233L191.688 68.712ZM186.504 81V82H187.167L187.425 81.3887L186.504 81ZM193.544 64.296L192.621 63.9104L192.042 65.296H193.544V64.296ZM210.824 64.296V65.296H212.326L211.747 63.9104L210.824 64.296ZM202.184 43.624L203.107 43.2384L202.184 41.0308L201.261 43.2384L202.184 43.624ZM182.113 81.3907L200.097 39.0227L198.255 38.2413L180.271 80.6093L182.113 81.3907ZM199.176 39.632H205.192V37.632H199.176V39.632ZM204.271 39.0227L222.255 81.3907L224.097 80.6093L206.113 38.2413L204.271 39.0227ZM223.176 80H217.864V82H223.176V80ZM218.785 80.6113L213.601 68.3233L211.759 69.1007L216.943 81.3887L218.785 80.6113ZM212.68 67.712H191.688V69.712H212.68V67.712ZM190.767 68.3233L185.583 80.6113L187.425 81.3887L192.609 69.1007L190.767 68.3233ZM186.504 80H181.192V82H186.504V80ZM193.544 65.296H210.824V63.296H193.544V65.296ZM211.747 63.9104L203.107 43.2384L201.261 44.0096L209.901 64.6816L211.747 63.9104ZM201.261 43.2384L192.621 63.9104L194.467 64.6816L203.107 44.0096L201.261 43.2384ZM232.399 91.56L232.97 90.7388L232.96 90.7323L232.399 91.56ZM227.279 84.84V83.84H225.905L226.327 85.1474L227.279 84.84ZM232.591 84.84L233.518 84.4643L233.265 83.84H232.591V84.84ZM235.919 88.488L236.413 87.6183L236.404 87.6132L236.395 87.6083L235.919 88.488ZM249.935 87.208L249.228 86.5009L249.219 86.5097L249.21 86.5188L249.935 87.208ZM252.495 75.304H253.495V72.1316L251.676 74.7305L252.495 75.304ZM247.823 79.464L248.302 80.3419L248.309 80.3382L247.823 79.464ZM232.847 78.888L232.314 79.7342L232.323 79.74L232.333 79.7455L232.847 78.888ZM227.471 73L226.583 73.4594L227.471 73ZM227.471 56.488L228.356 56.9538L228.359 56.9474L227.471 56.488ZM232.847 50.664L233.368 51.5173L233.373 51.5146L232.847 50.664ZM247.823 50.024L247.344 50.9019L247.356 50.9083L247.368 50.9144L247.823 50.024ZM252.495 54.12L251.669 54.684L253.495 57.3575V54.12H252.495ZM252.495 49V48H251.495V49H252.495ZM257.295 49H258.295V48H257.295V49ZM253.327 90.536L252.65 89.7998L252.644 89.8053L253.327 90.536ZM247.631 75.048L247.091 74.2061L247.081 74.2126L247.631 75.048ZM251.407 70.76L250.508 70.3211L250.504 70.3301L251.407 70.76ZM251.407 58.728L250.504 59.1579L250.508 59.1666L250.513 59.1752L251.407 58.728ZM247.631 54.44L247.081 55.2755L247.091 55.2819L247.631 54.44ZM235.599 54.44L236.129 55.288L235.599 54.44ZM231.695 58.728L232.589 59.1752L231.695 58.728ZM231.695 70.76L230.796 71.1989L230.801 71.2072L231.695 70.76ZM235.599 75.048L236.129 74.2L235.599 75.048ZM242.191 93.184C238.322 93.184 235.275 92.3406 232.97 90.7388L231.828 92.3812C234.558 94.2781 238.039 95.184 242.191 95.184V93.184ZM232.96 90.7323C230.619 89.1448 229.055 87.0841 228.231 84.5326L226.327 85.1474C227.295 88.1426 229.145 90.5618 231.838 92.3877L232.96 90.7323ZM227.279 85.84H232.591V83.84H227.279V85.84ZM231.664 85.2157C232.396 87.0218 233.672 88.4103 235.443 89.3677L236.395 87.6083C235.008 86.8591 234.066 85.8155 233.518 84.4643L231.664 85.2157ZM235.425 89.3577C237.197 90.3633 239.387 90.832 241.935 90.832V88.832C239.619 88.832 237.798 88.4047 236.413 87.6183L235.425 89.3577ZM241.935 90.832C245.737 90.832 248.728 89.9281 250.66 87.8972L249.21 86.5188C247.814 87.9866 245.471 88.832 241.935 88.832V90.832ZM250.642 87.9151C252.596 85.9613 253.495 83.1723 253.495 79.72H251.495C251.495 82.8383 250.687 85.0414 249.228 86.5009L250.642 87.9151ZM253.495 79.72V75.304H251.495V79.72H253.495ZM251.676 74.7305C250.573 76.3062 249.132 77.5927 247.337 78.5898L248.309 80.3382C250.354 79.202 252.028 77.7151 253.314 75.8775L251.676 74.7305ZM247.344 78.5861C245.645 79.5131 243.556 80 241.039 80V82C243.813 82 246.247 81.4629 248.302 80.3419L247.344 78.5861ZM241.039 80C238.08 80 235.532 79.3329 233.361 78.0305L232.333 79.7455C234.855 81.2591 237.769 82 241.039 82V80ZM233.38 78.0418C231.23 76.6884 229.559 74.8608 228.359 72.5406L226.583 73.4594C227.943 76.0885 229.856 78.1863 232.314 79.7342L233.38 78.0418ZM228.359 72.5406C227.159 70.2201 226.551 67.6277 226.551 64.744H224.551C224.551 67.919 225.223 70.8306 226.583 73.4594L228.359 72.5406ZM226.551 64.744C226.551 61.8149 227.16 59.2259 228.356 56.9537L226.586 56.0223C225.222 58.6141 224.551 61.5291 224.551 64.744H226.551ZM228.359 56.9474C229.558 54.6297 231.226 52.8268 233.368 51.5173L232.326 49.8107C229.86 51.3172 227.944 53.397 226.583 56.0286L228.359 56.9474ZM233.373 51.5146C235.542 50.1738 238.086 49.488 241.039 49.488V47.488C237.763 47.488 234.846 48.2529 232.321 49.8134L233.373 51.5146ZM241.039 49.488C243.556 49.488 245.645 49.9749 247.344 50.9019L248.302 49.1461C246.247 48.0251 243.813 47.488 241.039 47.488V49.488ZM247.368 50.9144C249.142 51.8211 250.571 53.0753 251.669 54.684L253.321 53.556C252.03 51.666 250.344 50.1896 248.278 49.1336L247.368 50.9144ZM253.495 54.12V49H251.495V54.12H253.495ZM252.495 50H257.295V48H252.495V50ZM256.295 49V80.04H258.295V49H256.295ZM256.295 80.04C256.295 84.4061 255.037 87.6056 252.65 89.7998L254.004 91.2722C256.908 88.6024 258.295 84.8046 258.295 80.04H256.295ZM252.644 89.8053C250.284 92.0107 246.85 93.184 242.191 93.184V95.184C247.175 95.184 251.165 93.9253 254.01 91.2667L252.644 89.8053ZM241.679 77.648C244.18 77.648 246.365 77.0781 248.181 75.8834L247.081 74.2126C245.655 75.1512 243.872 75.648 241.679 75.648V77.648ZM248.171 75.8899C249.993 74.722 251.377 73.1497 252.31 71.1899L250.504 70.3301C249.731 71.9543 248.598 73.2406 247.091 74.2061L248.171 75.8899ZM252.306 71.1988C253.273 69.2186 253.751 67.0619 253.751 64.744H251.751C251.751 66.7781 251.333 68.6321 250.508 70.3212L252.306 71.1988ZM253.751 64.744C253.751 62.387 253.274 60.226 252.301 58.2808L250.513 59.1752C251.332 60.814 251.751 62.6637 251.751 64.744H253.751ZM252.31 58.2981C251.377 56.3383 249.993 54.766 248.171 53.5981L247.091 55.2819C248.598 56.2474 249.731 57.5337 250.504 59.1579L252.31 58.2981ZM248.181 53.6046C246.365 52.4099 244.18 51.84 241.679 51.84V53.84C243.872 53.84 245.655 54.3368 247.081 55.2754L248.181 53.6046ZM241.679 51.84C239.177 51.84 236.959 52.4105 235.069 53.592L236.129 55.288C237.652 54.3362 239.488 53.84 241.679 53.84V51.84ZM235.069 53.592C233.207 54.7557 231.779 56.3234 230.801 58.2808L232.589 59.1752C233.403 57.5486 234.578 56.2576 236.129 55.288L235.069 53.592ZM230.801 58.2808C229.828 60.226 229.351 62.387 229.351 64.744H231.351C231.351 62.6637 231.77 60.814 232.589 59.1752L230.801 58.2808ZM229.351 64.744C229.351 67.0619 229.829 69.2186 230.796 71.1988L232.594 70.3212C231.769 68.6321 231.351 66.7781 231.351 64.744H229.351ZM230.801 71.2072C231.779 73.1646 233.207 74.7323 235.069 75.896L236.129 74.2C234.578 73.2304 233.403 71.9394 232.589 70.3128L230.801 71.2072ZM235.069 75.896C236.959 77.0775 239.177 77.648 241.679 77.648V75.648C239.488 75.648 237.652 75.1518 236.129 74.2L235.069 75.896ZM271.294 79.336L270.77 80.1882L270.781 80.1948L271.294 79.336ZM265.598 73.32L264.712 73.7852L264.718 73.7968L265.598 73.32ZM265.534 56.68L266.422 57.1394L266.425 57.1332L265.534 56.68ZM271.037 50.728L271.557 51.5829L271.567 51.576L271.037 50.728ZM287.934 50.728L287.397 51.5717L287.406 51.5773L287.415 51.5828L287.934 50.728ZM293.438 56.68L292.546 57.1333L292.549 57.1394L293.438 56.68ZM295.357 66.92V67.92H296.357V66.92H295.357ZM268.542 66.92V65.92H267.396L267.551 67.0551L268.542 66.92ZM270.334 72.104L269.474 72.6151L269.482 72.6289L269.491 72.6424L270.334 72.104ZM274.238 75.816L273.736 76.6814L273.745 76.6864L273.754 76.6912L274.238 75.816ZM285.565 75.688L286.104 76.5307L286.112 76.5255L286.12 76.5201L285.565 75.688ZM289.15 71.784V70.784H288.553L288.27 71.3085L289.15 71.784ZM294.398 71.784L295.33 72.1458L295.858 70.784H294.398V71.784ZM289.086 78.824L289.686 79.624L289.688 79.6223L289.086 78.824ZM268.605 62.44L267.62 62.2706L267.419 63.44H268.605V62.44ZM290.366 62.44V63.44H291.534L291.354 62.2856L290.366 62.44ZM286.91 55.592L287.608 54.8768L286.91 55.592ZM272.062 55.592L271.363 54.8768L271.354 54.8849L272.062 55.592ZM279.805 80.512C276.717 80.512 274.061 79.8227 271.806 78.4772L270.781 80.1948C273.39 81.7506 276.409 82.512 279.805 82.512V80.512ZM271.817 78.4838C269.535 77.0826 267.759 75.207 266.477 72.8432L264.718 73.7968C266.167 76.4677 268.188 78.6027 270.77 80.1882L271.817 78.4838ZM266.483 72.8549C265.24 70.4903 264.614 67.8782 264.614 65H262.614C262.614 68.1805 263.309 71.115 264.712 73.7851L266.483 72.8549ZM264.614 65C264.614 62.0712 265.222 59.458 266.422 57.1394L264.645 56.2206C263.285 58.8514 262.614 61.7848 262.614 65H264.614ZM266.425 57.1332C267.621 54.78 269.328 52.9358 271.556 51.5828L270.519 49.8732C267.968 51.4215 266.006 53.5453 264.642 56.2268L266.425 57.1332ZM271.567 51.576C273.775 50.1963 276.401 49.488 279.486 49.488V47.488C276.084 47.488 273.079 48.2731 270.507 49.88L271.567 51.576ZM279.486 49.488C282.616 49.488 285.238 50.1977 287.397 51.5717L288.47 49.8843C285.936 48.2716 282.926 47.488 279.486 47.488V49.488ZM287.415 51.5828C289.643 52.9358 291.35 54.78 292.546 57.1332L294.329 56.2268C292.965 53.5453 291.003 51.4215 288.452 49.8732L287.415 51.5828ZM292.549 57.1394C293.749 59.458 294.357 62.0712 294.357 65H296.357C296.357 61.7848 295.686 58.8514 294.326 56.2206L292.549 57.1394ZM294.357 65V66.92H296.357V65H294.357ZM295.357 65.92H268.542V67.92H295.357V65.92ZM267.551 67.0551C267.824 69.061 268.465 70.9175 269.474 72.6151L271.193 71.5929C270.325 70.1332 269.771 68.5337 269.532 66.7849L267.551 67.0551ZM269.491 72.6424C270.561 74.317 271.981 75.6649 273.736 76.6814L274.739 74.9506C273.252 74.0897 272.069 72.963 271.176 71.5656L269.491 72.6424ZM273.754 76.6912C275.544 77.6808 277.593 78.16 279.869 78.16V76.16C277.879 76.16 276.173 75.7432 274.721 74.9408L273.754 76.6912ZM279.869 78.16C282.276 78.16 284.372 77.6369 286.104 76.5307L285.027 74.8453C283.687 75.7017 281.986 76.16 279.869 76.16V78.16ZM286.12 76.5201C287.788 75.4082 289.096 73.986 290.029 72.2595L288.27 71.3085C287.496 72.7393 286.415 73.9198 285.011 74.8559L286.12 76.5201ZM289.15 72.784H294.398V70.784H289.15V72.784ZM293.465 71.4222C292.423 74.1087 290.766 76.3038 288.483 78.0257L289.688 79.6223C292.269 77.6749 294.154 75.1766 295.33 72.1458L293.465 71.4222ZM288.486 78.024C286.311 79.6546 283.446 80.512 279.805 80.512V82.512C283.76 82.512 287.081 81.5774 289.686 79.624L288.486 78.024ZM268.605 63.44H290.366V61.44H268.605V63.44ZM291.354 62.2856C290.895 59.3538 289.649 56.8706 287.608 54.8768L286.211 56.3072C287.925 57.9827 288.982 60.0649 289.377 62.5944L291.354 62.2856ZM287.608 54.8768C285.513 52.8287 282.771 51.84 279.486 51.84V53.84C282.344 53.84 284.552 54.686 286.211 56.3072L287.608 54.8768ZM279.486 51.84C276.2 51.84 273.458 52.8287 271.363 54.8768L272.76 56.3072C274.419 54.686 276.627 53.84 279.486 53.84V51.84ZM271.354 54.8849C269.363 56.8759 268.122 59.3508 267.62 62.2706L269.591 62.6094C270.028 60.0678 271.09 57.9775 272.769 56.2991L271.354 54.8849ZM301.223 81H300.223V82H301.223V81ZM301.223 49V48H300.223V49H301.223ZM306.022 49H307.022V48H306.022V49ZM306.022 53.992H305.022V56.992L306.823 54.592L306.022 53.992ZM310.247 50.088L310.786 50.9299L310.247 50.088ZM322.855 50.088L322.369 50.9622L322.38 50.9685L322.392 50.9746L322.855 50.088ZM327.59 54.76L326.722 55.2561L326.728 55.2667L326.735 55.2771L327.59 54.76ZM329.447 81V82H330.447V81H329.447ZM324.646 81H323.646V82H324.646V81ZM322.15 55.528L321.418 56.2085L321.426 56.2172L322.15 55.528ZM310.822 54.056L310.335 53.1831H310.335L310.822 54.056ZM307.302 57.512L306.445 56.9975L306.441 57.005L307.302 57.512ZM306.022 81V82H307.022V81H306.022ZM302.223 81V49H300.223V81H302.223ZM301.223 50H306.022V48H301.223V50ZM305.022 49V53.992H307.022V49H305.022ZM306.823 54.592C307.901 53.1543 309.22 51.934 310.786 50.9299L309.707 49.2461C307.945 50.3753 306.448 51.7577 305.223 53.392L306.823 54.592ZM310.786 50.9299C312.245 49.9944 314.176 49.488 316.646 49.488V47.488C313.912 47.488 311.576 48.0482 309.707 49.2461L310.786 50.9299ZM316.646 49.488C318.697 49.488 320.599 49.9789 322.369 50.9622L323.34 49.2138C321.27 48.0638 319.033 47.488 316.646 47.488V49.488ZM322.392 50.9746C324.17 51.9022 325.614 53.3166 326.722 55.2561L328.459 54.2639C327.178 52.0221 325.464 50.3218 323.317 49.2014L322.392 50.9746ZM326.735 55.2771C327.856 57.1326 328.447 59.481 328.447 62.376H330.447C330.447 59.2123 329.8 56.4834 328.446 54.2429L326.735 55.2771ZM328.447 62.376V81H330.447V62.376H328.447ZM329.447 80H324.646V82H329.447V80ZM325.646 81V62.504H323.646V81H325.646ZM325.646 62.504C325.646 59.401 324.75 56.8103 322.875 54.8388L321.426 56.2172C322.879 57.7443 323.646 59.8043 323.646 62.504H325.646ZM322.883 54.8475C321.013 52.8339 318.585 51.84 315.686 51.84V53.84C318.079 53.84 319.96 54.6381 321.418 56.2084L322.883 54.8475ZM315.686 51.84C313.737 51.84 311.946 52.2826 310.335 53.1831L311.31 54.9289C312.6 54.2081 314.052 53.84 315.686 53.84V51.84ZM310.335 53.1831C308.724 54.083 307.426 55.3619 306.445 56.9975L308.16 58.0265C308.971 56.6754 310.019 55.6503 311.31 54.9289L310.335 53.1831ZM306.441 57.005C305.485 58.6299 305.022 60.4953 305.022 62.568H307.022C307.022 60.8007 307.414 59.2954 308.164 58.019L306.441 57.005ZM305.022 62.568V81H307.022V62.568H305.022ZM306.022 80H301.223V82H306.022V80ZM342.913 79.336L342.376 80.1797L342.387 80.1866L342.913 79.336ZM337.408 73.32L336.517 73.7733L336.523 73.7851L337.408 73.32ZM337.408 56.68L336.523 56.2149L336.52 56.2206L337.408 56.68ZM342.913 50.728L343.438 51.5787L343.449 51.5717L342.913 50.728ZM360.896 51.432L360.301 52.2351L360.307 52.2396L360.896 51.432ZM366.337 59.048V60.048H367.682L367.294 58.7594L366.337 59.048ZM361.152 59.048L360.223 59.4157L360.473 60.048H361.152V59.048ZM357.633 54.568L357.043 55.3759L357.053 55.3832L357.633 54.568ZM345.729 54.504L345.193 53.6595L345.729 54.504ZM341.697 58.92L340.806 58.4645L341.697 58.92ZM341.697 71.08L340.802 71.5272L340.806 71.5355L341.697 71.08ZM345.729 75.496L345.193 76.3405L345.729 75.496ZM357.633 75.432L357.053 74.6168L357.043 74.6242L357.633 75.432ZM361.152 70.952V69.952H360.473L360.223 70.5843L361.152 70.952ZM366.337 70.952L367.294 71.2406L367.682 69.952H366.337V70.952ZM360.896 78.568L360.307 77.7603L360.301 77.7649L360.896 78.568ZM351.232 80.512C348.188 80.512 345.603 79.8236 343.438 78.4854L342.387 80.1866C344.915 81.7497 347.877 82.512 351.232 82.512V80.512ZM343.449 78.4923C341.253 77.0948 339.537 75.2214 338.294 72.8549L336.523 73.7851C337.925 76.4532 339.878 78.5905 342.376 80.1797L343.449 78.4923ZM338.3 72.8668C337.096 70.4999 336.488 67.8835 336.488 65H334.488C334.488 68.1751 335.161 71.1054 336.517 73.7732L338.3 72.8668ZM336.488 65C336.488 62.0712 337.097 59.458 338.297 57.1394L336.52 56.2206C335.16 58.8514 334.488 61.7848 334.488 65H336.488ZM338.294 57.1451C339.536 54.781 341.249 52.9322 343.438 51.5786L342.387 49.8774C339.883 51.4251 337.926 53.5443 336.523 56.2149L338.294 57.1451ZM343.449 51.5717C345.613 50.1951 348.193 49.488 351.232 49.488V47.488C347.872 47.488 344.906 48.2742 342.376 49.8843L343.449 51.5717ZM351.232 49.488C354.849 49.488 357.853 50.4192 360.301 52.2351L361.492 50.6289C358.649 48.5194 355.21 47.488 351.232 47.488V49.488ZM360.307 52.2396C362.823 54.0771 364.505 56.4355 365.379 59.3365L367.294 58.7594C366.291 55.4312 364.346 52.7122 361.486 50.6244L360.307 52.2396ZM366.337 58.048H361.152V60.048H366.337V58.048ZM362.082 58.6803C361.285 56.6641 359.989 55.0159 358.212 53.7528L357.053 55.3832C358.518 56.4241 359.569 57.7625 360.223 59.4157L362.082 58.6803ZM358.222 53.7602C356.446 52.4644 354.311 51.84 351.872 51.84V53.84C353.956 53.84 355.661 54.3676 357.043 55.3758L358.222 53.7602ZM351.872 51.84C349.362 51.84 347.123 52.4356 345.193 53.6595L346.264 55.3485C347.833 54.3538 349.69 53.84 351.872 53.84V51.84ZM345.193 53.6595C343.294 54.864 341.827 56.47 340.806 58.4645L342.587 59.3755C343.444 57.7007 344.665 56.3627 346.264 55.3485L345.193 53.6595ZM340.806 58.4645C339.79 60.4508 339.288 62.6354 339.288 65H341.288C341.288 62.9273 341.726 61.0585 342.587 59.3755L340.806 58.4645ZM339.288 65C339.288 67.3254 339.791 69.5059 340.802 71.5272L342.591 70.6328C341.724 68.8995 341.288 67.0266 341.288 65H339.288ZM340.806 71.5355C341.827 73.53 343.294 75.136 345.193 76.3405L346.264 74.6515C344.665 73.6373 343.444 72.2993 342.587 70.6245L340.806 71.5355ZM345.193 76.3405C347.123 77.5644 349.362 78.16 351.872 78.16V76.16C349.69 76.16 347.833 75.6462 346.264 74.6515L345.193 76.3405ZM351.872 78.16C354.311 78.16 356.446 77.5356 358.222 76.2398L357.043 74.6242C355.661 75.6324 353.956 76.16 351.872 76.16V78.16ZM358.212 76.2472C359.989 74.9841 361.285 73.3358 362.082 71.3197L360.223 70.5843C359.569 72.2375 358.518 73.5759 357.053 74.6168L358.212 76.2472ZM361.152 71.952H366.337V69.952H361.152V71.952ZM365.379 70.6634C364.505 73.5645 362.823 75.9229 360.307 77.7604L361.486 79.3756C364.346 77.2878 366.291 74.5688 367.294 71.2406L365.379 70.6634ZM360.301 77.7649C357.853 79.5808 354.849 80.512 351.232 80.512V82.512C355.21 82.512 358.649 81.4806 361.492 79.3711L360.301 77.7649ZM375.613 93.672L374.699 93.2663L374.075 94.672H375.613V93.672ZM381.437 80.552L382.351 80.9577L382.525 80.5658L382.361 80.1696L381.437 80.552ZM368.381 49V48H366.885L367.457 49.3824L368.381 49ZM373.693 49L374.624 48.6345L374.375 48H373.693V49ZM383.997 75.24L383.066 75.6055L383.988 77.954L384.925 75.6114L383.997 75.24ZM394.493 49V48H393.816L393.565 48.6286L394.493 49ZM399.741 49L400.662 49.3904L401.251 48H399.741V49ZM380.797 93.672V94.672H381.459L381.718 94.0624L380.797 93.672ZM376.527 94.0777L382.351 80.9577L380.523 80.1463L374.699 93.2663L376.527 94.0777ZM382.361 80.1696L369.305 48.6176L367.457 49.3824L380.513 80.9344L382.361 80.1696ZM368.381 50H373.693V48H368.381V50ZM372.762 49.3655L383.066 75.6055L384.928 74.8745L374.624 48.6345L372.762 49.3655ZM384.925 75.6114L395.421 49.3714L393.565 48.6286L383.069 74.8686L384.925 75.6114ZM394.493 50H399.741V48H394.493V50ZM398.82 48.6096L379.876 93.2816L381.718 94.0624L400.662 49.3904L398.82 48.6096ZM380.797 92.672H375.613V94.672H380.797V92.672Z" fill="#CFD0D0"/>
<path d="M35.68 81V43.176H20.896V38.632H55.264V43.176H40.48V81H35.68ZM65.2115 81V38.632H96.3795V43.24H70.0115V57.448H93.5635V62.12H70.0115V76.392H96.3795V81H65.2115ZM116.565 81L103.381 38.632H108.437L119.317 74.216L130.709 38.632H136.213L147.605 74.216L158.485 38.632H163.541L150.357 81H144.917L133.461 45.416L122.005 81H116.565Z" fill="black"/>
<path d="M35.68 81H34.68V82H35.68V81ZM35.68 43.176H36.68V42.176H35.68V43.176ZM20.896 43.176H19.896V44.176H20.896V43.176ZM20.896 38.632V37.632H19.896V38.632H20.896ZM55.264 38.632H56.264V37.632H55.264V38.632ZM55.264 43.176V44.176H56.264V43.176H55.264ZM40.48 43.176V42.176H39.48V43.176H40.48ZM40.48 81V82H41.48V81H40.48ZM36.68 81V43.176H34.68V81H36.68ZM35.68 42.176H20.896V44.176H35.68V42.176ZM21.896 43.176V38.632H19.896V43.176H21.896ZM20.896 39.632H55.264V37.632H20.896V39.632ZM54.264 38.632V43.176H56.264V38.632H54.264ZM55.264 42.176H40.48V44.176H55.264V42.176ZM39.48 43.176V81H41.48V43.176H39.48ZM40.48 80H35.68V82H40.48V80ZM65.2115 81H64.2115V82H65.2115V81ZM65.2115 38.632V37.632H64.2115V38.632H65.2115ZM96.3795 38.632H97.3795V37.632H96.3795V38.632ZM96.3795 43.24V44.24H97.3795V43.24H96.3795ZM70.0115 43.24V42.24H69.0115V43.24H70.0115ZM70.0115 57.448H69.0115V58.448H70.0115V57.448ZM93.5635 57.448H94.5635V56.448H93.5635V57.448ZM93.5635 62.12V63.12H94.5635V62.12H93.5635ZM70.0115 62.12V61.12H69.0115V62.12H70.0115ZM70.0115 76.392H69.0115V77.392H70.0115V76.392ZM96.3795 76.392H97.3795V75.392H96.3795V76.392ZM96.3795 81V82H97.3795V81H96.3795ZM66.2115 81V38.632H64.2115V81H66.2115ZM65.2115 39.632H96.3795V37.632H65.2115V39.632ZM95.3795 38.632V43.24H97.3795V38.632H95.3795ZM96.3795 42.24H70.0115V44.24H96.3795V42.24ZM69.0115 43.24V57.448H71.0115V43.24H69.0115ZM70.0115 58.448H93.5635V56.448H70.0115V58.448ZM92.5635 57.448V62.12H94.5635V57.448H92.5635ZM93.5635 61.12H70.0115V63.12H93.5635V61.12ZM69.0115 62.12V76.392H71.0115V62.12H69.0115ZM70.0115 77.392H96.3795V75.392H70.0115V77.392ZM95.3795 76.392V81H97.3795V76.392H95.3795ZM96.3795 80H65.2115V82H96.3795V80ZM116.565 81L115.61 81.2971L115.829 82H116.565V81ZM103.381 38.632V37.632H102.023L102.426 38.9291L103.381 38.632ZM108.437 38.632L109.393 38.3396L109.177 37.632H108.437V38.632ZM119.317 74.216L118.361 74.5084L119.295 77.5643L120.269 74.5209L119.317 74.216ZM130.709 38.632V37.632H129.979L129.757 38.3271L130.709 38.632ZM136.213 38.632L137.165 38.3271L136.943 37.632H136.213V38.632ZM147.605 74.216L146.653 74.5209L147.627 77.5643L148.561 74.5084L147.605 74.216ZM158.485 38.632V37.632H157.745L157.529 38.3396L158.485 38.632ZM163.541 38.632L164.496 38.9291L164.899 37.632H163.541V38.632ZM150.357 81V82H151.093L151.312 81.2971L150.357 81ZM144.917 81L143.965 81.3065L144.188 82H144.917V81ZM133.461 45.416L134.413 45.1095L133.461 42.1528L132.509 45.1095L133.461 45.416ZM122.005 81V82H122.734L122.957 81.3065L122.005 81ZM117.52 80.7029L104.336 38.3349L102.426 38.9291L115.61 81.2971L117.52 80.7029ZM103.381 39.632H108.437V37.632H103.381V39.632ZM107.481 38.9244L118.361 74.5084L120.273 73.9236L109.393 38.3396L107.481 38.9244ZM120.269 74.5209L131.661 38.9369L129.757 38.3271L118.365 73.9111L120.269 74.5209ZM130.709 39.632H136.213V37.632H130.709V39.632ZM135.261 38.9369L146.653 74.5209L148.557 73.9111L137.165 38.3271L135.261 38.9369ZM148.561 74.5084L159.441 38.9244L157.529 38.3396L146.649 73.9236L148.561 74.5084ZM158.485 39.632H163.541V37.632H158.485V39.632ZM162.586 38.3349L149.402 80.7029L151.312 81.2971L164.496 38.9291L162.586 38.3349ZM150.357 80H144.917V82H150.357V80ZM145.869 80.6935L134.413 45.1095L132.509 45.7224L143.965 81.3065L145.869 80.6935ZM132.509 45.1095L121.053 80.6935L122.957 81.3065L134.413 45.7224L132.509 45.1095ZM122.005 80H116.565V82H122.005V80Z" fill="#212020"/>
<defs>
<filter id="filter0_d_2_16" x="0" y="0" width="428.995" height="115" filterUnits="userSpaceOnUse" color-interpolation-filters="sRGB">
<feFlood flood-opacity="0" result="BackgroundImageFix"/>
<feColorMatrix in="SourceAlpha" type="matrix" values="0 0 0 0 0 0 0 0 0 0 0 0 0 0 0 0 0 0 127 0" result="hardAlpha"/>
<feOffset dy="4"/>
<feGaussianBlur stdDeviation="2"/>
<feComposite in2="hardAlpha" operator="out"/>
<feColorMatrix type="matrix" values="0 0 0 0 0 0 0 0 0 0 0 0 0 0 0 0 0 0 0.25 0"/>
<feBlend mode="normal" in2="BackgroundImageFix" result="effect1_dropShadow_2_16"/>
<feBlend mode="normal" in="SourceGraphic" in2="effect1_dropShadow_2_16" result="shape"/>
</filter>
</defs>
</svg>
